<?xml version="1.0" standalone="no"?>
<!DOCTYPE svg PUBLIC "-//W3C//DTD SVG 20010904//EN"
 "http://www.w3.org/TR/2001/REC-SVG-20010904/DTD/svg10.dtd">
<svg version="1.0" xmlns="http://www.w3.org/2000/svg"
 width="256.000000pt" height="256.000000pt" viewBox="0 0 256.000000 256.000000"
 preserveAspectRatio="xMidYMid meet">
<metadata>
Created by potrace 1.11, written by Peter Selinger 2001-2013
</metadata>
<g transform="translate(0.000000,256.000000) scale(0.100000,-0.100000)"
fill="#000000" stroke="none">
<path d="M1230 2553 c-8 -3 -192 -93 -407 -199 l-393 -193 -1 -38 c0 -21 -2
-130 -2 -242 l-2 -204 -69 -29 c-53 -21 -85 -28 -138 -28 -38 0 -78 -5 -89
-10 -45 -24 -45 -33 -45 -628 l1 -564 -26 -14 c-48 -24 -59 -67 -59 -223 0
-128 2 -143 20 -161 20 -20 33 -20 1260 -20 l1240 0 21 21 c19 19 20 30 17
172 -3 133 -5 155 -23 179 -11 15 -29 31 -40 36 -19 9 -20 20 -20 586 l0 578
-28 24 c-24 21 -38 24 -101 24 -57 0 -88 6 -142 28 l-69 29 -2 224 c-1 123 -2
232 -2 242 -1 14 -99 66 -397 213 -394 194 -455 218 -504 197z m371 -228 c162
-79 290 -145 284 -146 -5 0 -117 -2 -247 -3 l-238 -1 6 32 c4 23 0 43 -17 72
-23 41 -51 58 -105 65 -65 8 -135 -63 -130 -133 l3 -36 -244 0 c-133 0 -243 2
-243 5 0 3 98 53 217 110 119 58 248 122 287 142 39 21 85 37 102 38 21 0 132
-50 325 -145z m-291 -80 c7 -8 10 -25 6 -40 -5 -20 -13 -25 -36 -25 -23 0 -31
5 -36 25 -7 29 10 55 36 55 10 0 23 -7 30 -15z m738 -345 l0 -190 -36 16 c-20
8 -183 74 -362 146 -250 101 -335 131 -370 131 -35 0 -124 -32 -385 -138 -187
-75 -350 -141 -362 -146 l-23 -9 0 190 0 190 769 0 769 0 0 -190z m-470 -91
c152 -62 317 -128 366 -148 l90 -36 -377 -3 c-207 -1 -546 -1 -753 0 l-376 3
198 79 c110 44 204 82 209 85 37 21 324 130 343 130 13 1 148 -49 300 -110z
m-1327 -284 c1 -5 2 -32 4 -59 5 -77 33 -98 132 -100 l78 -2 5 -61 c3 -38 12
-68 23 -80 13 -16 17 -38 17 -109 l0 -89 -170 -1 -170 0 0 256 0 256 40 0 c22
0 40 -5 41 -11z m1967 -32 l3 -43 -940 0 -941 0 0 38 c0 21 2 41 4 43 3 2 425
4 938 4 l933 0 3 -42z m165 38 c4 -1 7 -115 7 -254 l0 -252 -170 0 -170 0 0
88 c0 74 3 93 20 114 15 19 20 41 20 82 l0 57 77 -1 c70 -1 80 2 107 25 25 23
29 34 31 86 2 32 3 60 4 60 1 2 56 -2 74 -5z m-1575 -209 l3 -43 -128 3 -128
3 -1 30 c0 17 3 35 7 40 5 6 56 10 126 10 l118 0 3 -43z m259 -16 c1 -43 7
-64 22 -80 20 -21 21 -34 21 -239 l0 -217 -129 0 -129 0 2 220 c1 156 5 223
13 228 18 11 30 52 28 97 0 22 3 42 7 46 4 3 43 5 85 4 l78 -1 2 -58z m331 55
c7 0 12 -16 12 -41 l0 -40 -130 0 -130 0 0 43 0 42 118 -1 c64 -1 123 -2 130
-3z m258 0 c5 0 9 -20 9 -43 -2 -47 10 -89 28 -100 9 -5 12 -69 13 -228 l0
-220 -128 0 -128 0 0 215 c0 201 1 218 20 243 12 16 21 44 21 67 1 70 1 70 81
69 40 -1 78 -2 84 -3z m349 -36 l0 -40 -127 -3 -128 -3 0 40 c0 22 5 41 12 43
7 3 64 4 127 3 l115 -1 1 -39z m-1237 -343 l2 -213 -87 3 -86 3 1 200 c0 110
1 205 1 210 1 6 35 10 84 10 l82 -1 3 -212z m593 208 c1 -3 2 -99 3 -213 l2
-208 -86 3 -85 3 0 205 c-1 113 2 207 6 210 4 3 41 5 83 5 42 0 77 -2 77 -5z
m594 -2 c6 -6 9 -243 6 -385 l-1 -33 -84 0 -84 0 -1 207 c-1 114 3 209 8 212
13 8 148 7 156 -1z m-1445 -332 c0 -83 0 -84 -29 -95 -37 -16 -52 -46 -54
-109 0 -35 -5 -52 -14 -53 -7 0 -30 -1 -50 -1 -79 -1 -116 -46 -108 -132 4
-38 -6 -45 -57 -38 l-28 4 0 254 0 254 170 0 170 0 0 -84z m1880 -170 l0 -255
-22 -3 c-54 -8 -65 1 -63 48 4 91 -30 120 -140 123 -30 1 -31 2 -33 56 -2 68
-12 89 -52 105 l-30 12 0 84 0 84 170 0 170 0 0 -254z m-342 -44 c3 -38 1 -42
-20 -43 -28 -1 -1476 -1 -1500 0 -14 1 -18 10 -18 39 0 21 2 41 4 43 2 2 348
4 768 3 l763 -1 3 -41z m172 -172 c0 -22 -3 -40 -7 -41 -10 -1 -1810 -1 -1845
0 -26 1 -28 4 -28 41 l0 40 940 0 940 0 0 -40z m240 -145 c13 -15 22 -234 10
-236 -26 -6 -2380 -2 -2381 4 -1 9 -1 54 0 67 1 7 188 10 539 10 501 0 540 1
554 18 18 19 8 61 -14 63 -7 1 -249 2 -538 3 -289 1 -530 5 -537 9 -12 7 -12
17 1 55 l7 22 1173 0 c1038 0 1175 -2 1186 -15z"/>
<path d="M1338 238 c-22 -22 -23 -32 -2 -52 13 -13 43 -16 177 -16 89 0 168 4
175 8 7 5 14 18 17 30 7 41 -18 47 -188 48 -142 0 -163 -2 -179 -18z"/>
</g>
</svg>
